<svg id="Capa_1" data-name="Capa 1" xmlns="http://www.w3.org/2000/svg" viewBox="0 0 800 800"><defs><style>.cls-1{fill:#ffd57e;}.cls-2{fill:none;stroke:#ffd57e;stroke-linecap:round;stroke-linejoin:round;stroke-dasharray:0 4;}.cls-3{fill:#ffa91a;}.cls-4{fill:#fff;}.cls-5{fill:#ffb86e;}.cls-6{fill:#ff2838;}.cls-7{fill:#ae1101;}</style></defs><path class="cls-1" d="M688.54,400c0,30.69-26.38,56.85-35.37,84.54-9.33,28.71-3.67,65.31-21.06,89.2-17.57,24.13-54.24,30-78.37,47.55-23.89,17.39-40.7,50.56-69.4,59.88-27.7,9-60.66-7.67-91.36-7.67s-63.66,16.66-91.35,7.67c-28.71-9.32-45.51-42.49-69.41-59.88-24.13-17.57-60.8-23.42-78.36-47.55-17.39-23.89-11.74-60.49-21.06-89.2-9-27.69-35.38-53.85-35.38-84.54s26.39-56.85,35.38-84.54c9.32-28.71,3.67-65.31,21.06-89.2,17.56-24.13,54.23-30,78.37-47.55,23.89-17.39,40.69-50.56,69.4-59.88,27.69-9,60.66,7.67,91.35,7.67s63.66-16.66,91.36-7.67c28.7,9.32,45.51,42.49,69.4,59.88,24.13,17.57,60.81,23.42,78.37,47.55,17.39,23.89,11.74,60.49,21.06,89.2C662.16,343.15,688.54,369.31,688.54,400Z"/><path class="cls-2" d="M695,400c0,32.25-11,62.39-20.41,91.49-9.79,30.17-19,60.92-37.25,86-18.45,25.36-45,43.52-70.35,62-25.1,18.27-50.48,38-80.64,47.81-29.1,9.45-61.09,8.7-93.35,8.7s-64.24.75-93.34-8.7c-30.17-9.8-55.54-29.54-80.65-47.81-25.36-18.45-51.89-36.61-70.35-62-18.27-25.11-27.45-55.86-37.25-86C101.94,462.39,91,432.26,91,400s11-62.39,20.41-91.49c9.8-30.17,19-60.92,37.25-86,18.46-25.36,45-43.52,70.35-62,25.11-18.27,50.48-38,80.64-47.81,29.11-9.45,61.1-8.7,93.35-8.7s64.25-.75,93.35,8.7c30.16,9.8,55.53,29.54,80.64,47.81,25.36,18.45,51.9,36.61,70.35,62,18.28,25.11,27.46,55.86,37.25,86C684,337.61,695,367.75,695,400Z"/><path class="cls-1" d="M305.86,541.69l31.95-56.51L265.87,507A156.68,156.68,0,0,0,305.86,541.69Z"/><path class="cls-1" d="M253.55,327.06l72.69,41.09,41.06-12.42-26.85-96.68A155.69,155.69,0,0,0,253.55,327.06Zm87,.88a8.89,8.89,0,1,1-8.88,8.89A8.89,8.89,0,0,1,340.51,327.94ZM286.3,305.18h15.24a7.09,7.09,0,1,1,0,14.17H286.3a7.09,7.09,0,1,1,0-14.17Z"/><path class="cls-3" d="M337.8,249.49l-5.61-20.18A186.46,186.46,0,0,0,226.7,311.88l18.22,10.3A165.54,165.54,0,0,1,337.8,249.49Z"/><path class="cls-4" d="M169.47,534.82a3.65,3.65,0,0,1-.35-.14,5.06,5.06,0,0,1-2.45-3L162,516.27l-28,8.61a29,29,0,0,0,17.08,55.51l47.06-14.49a28.79,28.79,0,0,0,12-7.22L171.05,536.3A5,5,0,0,1,169.47,534.82Z"/><path class="cls-3" d="M240,330.82l-18.22-10.3a187.32,187.32,0,0,0-21.93,85.87L221,400A166.36,166.36,0,0,1,240,330.82Z"/><path class="cls-3" d="M255.64,510l-21.3,6.45a187.39,187.39,0,0,0,56.34,52L301,550.33A166.51,166.51,0,0,1,255.64,510Z"/><path class="cls-4" d="M217,528.26c-.92-3-1.15-3.74-2.75-5.68l-30.64,9.27,32.34,18.51a28.93,28.93,0,0,0,1.46-20.75Z"/><path class="cls-3" d="M464.42,261.23,474.71,243a186.41,186.41,0,0,0-132.95-16.35l5.6,20.17A165.63,165.63,0,0,1,464.42,261.23Z"/><path class="cls-1" d="M147.3,289.08a10.47,10.47,0,1,0-10.47-10.46A10.48,10.48,0,0,0,147.3,289.08Z"/><path class="cls-1" d="M589.55,551a4.19,4.19,0,1,0,4.2,4.19A4.2,4.2,0,0,0,589.55,551Z"/><path class="cls-1" d="M169.85,352.52a6.81,6.81,0,1,0-6.81-6.8A6.82,6.82,0,0,0,169.85,352.52Z"/><circle class="cls-1" cx="610.97" cy="485.18" r="10.71" transform="translate(-139.72 272.7) rotate(-22.65)"/><path class="cls-1" d="M468.18,274.75l-34.41,60.86,76.72-23.21A156.69,156.69,0,0,0,468.18,274.75Z"/><path class="cls-3" d="M520.61,309.34l21.13-6.4a187.33,187.33,0,0,0-58.38-55l-10.3,18.21A166.44,166.44,0,0,1,520.61,309.34Z"/><path class="cls-1" d="M350,256.39l26.79,96.46L420,339.78l39.52-69.92A155.71,155.71,0,0,0,350,256.39Zm64.61,52.54a7.11,7.11,0,0,1,3.31,9.46l-6.62,13.73a7.11,7.11,0,0,1-9.46,3.31h0a7.11,7.11,0,0,1-3.31-9.46l6.62-13.73A7.1,7.1,0,0,1,414.62,308.93Zm-11.37-24.29a18,18,0,1,1-18-18A18,18,0,0,1,403.25,284.64Z"/><path class="cls-1" d="M231.12,396.93l82-24.8L248.66,335.7A156.78,156.78,0,0,0,231.12,396.93Z"/><path class="cls-1" d="M542.59,423.21,465.1,446.66l60.28,34.08A156.72,156.72,0,0,0,542.59,423.21Zm-22.1,25.26a7.77,7.77,0,1,1,7.77,7.77A7.77,7.77,0,0,1,520.49,448.47Z"/><path class="cls-3" d="M534,485.62l18.22,10.3a187.25,187.25,0,0,0,21.9-82.25l-21.31,6.44A166.41,166.41,0,0,1,534,485.62Z"/><path class="cls-4" d="M680.45,365.68a28.81,28.81,0,0,0-22.1-2.12l-29.24,9,5.32,17.59c0,.11,0,.22.07.33a5,5,0,0,1,.1.56c0,.16,0,.31,0,.47a4.17,4.17,0,0,1,0,.5,2.74,2.74,0,0,1-.08.5,3.89,3.89,0,0,1-.09.47,3.28,3.28,0,0,1-.2.52,3,3,0,0,1-.11.32L614.39,434.3a28.71,28.71,0,0,0,14-.76l47.07-14.48a29,29,0,0,0,5-53.38Z"/><path class="cls-4" d="M590.64,408.67a16.11,16.11,0,0,0,1,4.32l.42,1.34a28.92,28.92,0,0,0,12.86,16.34L620,399.79Z"/><path class="cls-3" d="M436.25,567l5.6,20.17a186.42,186.42,0,0,0,105.49-82.57l-18.21-10.29A165.65,165.65,0,0,1,436.25,567Z"/><polygon class="cls-4" points="595.75 297.14 557.21 308.8 547.4 311.77 526.69 318.04 516.74 321.05 426.58 348.33 412.82 352.49 379.5 362.58 370 365.45 338.38 375.02 325.24 379 230.73 407.6 220.79 410.6 200.07 416.87 190.27 419.84 147.3 432.84 174.87 523.94 218.69 510.68 228.5 507.71 249.38 501.39 259.33 498.38 345 472.46 358.76 468.3 395.47 457.19 404.97 454.31 439.81 443.77 452.95 439.79 543.29 412.46 553.23 409.45 574.12 403.13 583.92 400.16 623.31 388.24 595.75 297.14"/><path class="cls-1" d="M424,560.05l-25.86-93.14L351.57,481l-37.06,65.57A155.67,155.67,0,0,0,424,560.05Zm-57.5-16.91-13.35,7.35a7.09,7.09,0,0,1-6.83-12.42l13.35-7.35a7.09,7.09,0,0,1,6.83,12.42Zm8.4-37.33A14.16,14.16,0,1,1,389.09,520,14.16,14.16,0,0,1,374.93,505.81Z"/><path class="cls-3" d="M309.62,555.22l-10.29,18.21a186.49,186.49,0,0,0,133,16.36l-5.6-20.17A165.66,165.66,0,0,1,309.62,555.22Z"/><path class="cls-1" d="M520.49,489.38,452,450.64,407.67,464l25.92,93.36A155.71,155.71,0,0,0,520.49,489.38ZM485.83,507l-15.2-1.19a7.11,7.11,0,0,1-6.5-7.63h0a7.09,7.09,0,0,1,7.62-6.5l15.19,1.2A7.08,7.08,0,1,1,485.83,507Z"/><path class="cls-5" d="M286.3,319.35h15.24a7.09,7.09,0,1,0,0-14.17H286.3a7.09,7.09,0,1,0,0,14.17Z"/><path class="cls-5" d="M486.94,492.88l-15.19-1.2a7.09,7.09,0,0,0-7.62,6.5h0a7.11,7.11,0,0,0,6.5,7.63l15.2,1.19a7.08,7.08,0,1,0,1.11-14.12Z"/><path class="cls-5" d="M401.85,335.43h0a7.11,7.11,0,0,0,9.46-3.31l6.62-13.73a7.09,7.09,0,0,0-12.77-6.15L398.54,326A7.11,7.11,0,0,0,401.85,335.43Z"/><path class="cls-5" d="M359.7,530.72l-13.35,7.35a7.09,7.09,0,0,0,6.83,12.42l13.35-7.35a7.09,7.09,0,0,0-6.83-12.42Z"/><path class="cls-6" d="M403.25,505.81A14.16,14.16,0,1,0,389.09,520,14.16,14.16,0,0,0,403.25,505.81Z"/><path class="cls-6" d="M367.3,284.64a18,18,0,1,0,18-18A18,18,0,0,0,367.3,284.64Z"/><circle class="cls-6" cx="340.51" cy="336.83" r="8.89"/><path class="cls-6" d="M536,448.47a7.77,7.77,0,1,0-7.77,7.77A7.77,7.77,0,0,0,536,448.47Z"/><path class="cls-7" d="M147.3,299a20.39,20.39,0,1,0-20.39-20.39A20.41,20.41,0,0,0,147.3,299Zm0-30.86a10.47,10.47,0,1,1-10.47,10.47A10.49,10.49,0,0,1,147.3,268.15Z"/><path class="cls-7" d="M169.85,362.45a16.74,16.74,0,1,0-16.73-16.73A16.75,16.75,0,0,0,169.85,362.45Zm0-23.55a6.81,6.81,0,1,1-6.81,6.82A6.83,6.83,0,0,1,169.85,338.9Z"/><path class="cls-7" d="M611,464.54a20.64,20.64,0,1,0,20.63,20.64A20.66,20.66,0,0,0,611,464.54Zm0,31.34a10.71,10.71,0,1,1,10.71-10.7A10.72,10.72,0,0,1,611,495.88Z"/><path class="cls-7" d="M589.55,541.1a14.12,14.12,0,1,0,14.12,14.12A14.13,14.13,0,0,0,589.55,541.1Zm0,18.31a4.19,4.19,0,1,1,4.2-4.19A4.2,4.2,0,0,1,589.55,559.41Z"/><path class="cls-7" d="M704.28,379.8a39.23,39.23,0,0,0-48.9-25.89l-29.19,9-22.25-73.51a5,5,0,0,0-6.29-3.37l-46,13.91A197.25,197.25,0,0,0,484.43,237a3.64,3.64,0,0,0-.41-.36,4.32,4.32,0,0,0-.51-.16A196.75,196.75,0,0,0,215.79,310.8c-.11.15-.26.25-.36.41s-.09.36-.17.53a197.21,197.21,0,0,0-25.32,97.65l-50.39,15.25a5,5,0,0,0-3.37,6.29l22.9,75.68-28,8.63a39.12,39.12,0,1,0,23,74.79l47.07-14.48A39.18,39.18,0,0,0,227,526.64l-.4-1.3a26.76,26.76,0,0,0-2.26-5.83h0a197.49,197.49,0,0,0,65.22,60,3.62,3.62,0,0,0,.42.36,4.51,4.51,0,0,0,.52.17,196.75,196.75,0,0,0,267.71-74.34c.11-.15.26-.25.36-.41a5.16,5.16,0,0,0,.16-.52,197.46,197.46,0,0,0,24.92-83.95,39.13,39.13,0,0,0,47.64,22.43l47.06-14.48A39.17,39.17,0,0,0,704.28,379.8ZM541.74,302.94l-21.13,6.4a166.44,166.44,0,0,0-47.55-43.23l10.3-18.21A187.33,187.33,0,0,1,541.74,302.94ZM253.55,327.06a155.69,155.69,0,0,1,86.9-68l26.85,96.68-41.06,12.42Zm59.54,45.07-82,24.8a156.78,156.78,0,0,1,17.54-61.23ZM350,256.39a155.77,155.77,0,0,1,109.52,13.47L420,339.78,376.8,352.85Zm118.17,18.36a156.69,156.69,0,0,1,42.31,37.65l-76.72,23.21ZM474.71,243l-10.29,18.22a165.63,165.63,0,0,0-117.06-14.4l-5.6-20.17A186.41,186.41,0,0,1,474.71,243Zm-142.52-13.7,5.61,20.18a165.54,165.54,0,0,0-92.88,72.69l-18.22-10.3A186.46,186.46,0,0,1,332.19,229.31ZM221.81,320.52,240,330.82A166.36,166.36,0,0,0,221,400l-21.13,6.4A187.32,187.32,0,0,1,221.81,320.52ZM198.16,565.9,151.1,580.39A29,29,0,0,1,134,524.88l28-8.61,4.67,15.42a5.06,5.06,0,0,0,2.45,3,3.65,3.65,0,0,0,.35.14,4.88,4.88,0,0,0,1.58,1.48l39.09,22.38A28.79,28.79,0,0,1,198.16,565.9Zm17.76-15.54-32.34-18.51,30.64-9.27c1.6,1.94,1.83,2.64,2.75,5.68l.41,1.35A28.93,28.93,0,0,1,215.92,550.36Zm18.42-33.87,21.3-6.45A166.51,166.51,0,0,0,301,550.33l-10.3,18.21A187.39,187.39,0,0,1,234.34,516.49Zm286.15-27.11a155.71,155.71,0,0,1-86.9,68L407.67,464,452,450.64ZM465.1,446.66l77.49-23.45a156.72,156.72,0,0,1-17.21,57.53ZM424,560.05a155.67,155.67,0,0,1-109.52-13.47L351.57,481l46.6-14.1ZM305.86,541.69a156.68,156.68,0,0,1-40-34.74l71.94-21.77Zm-6.53,31.74,10.29-18.21a165.66,165.66,0,0,0,117.07,14.4l5.6,20.17A186.49,186.49,0,0,1,299.33,573.43Zm142.52,13.7L436.25,567a165.65,165.65,0,0,0,92.88-72.69l18.21,10.29A186.42,186.42,0,0,1,441.85,587.13Zm110.38-91.21L534,485.62a166.42,166.42,0,0,0,18.81-65.5l21.31-6.45A187.25,187.25,0,0,1,552.23,495.92Zm21.89-92.79-20.89,6.32-9.94,3L453,439.79l-13.14,4L405,454.31l-9.5,2.88L358.76,468.3,345,472.46l-85.67,25.92-9.95,3-20.88,6.32-9.82,3-43.81,13.26-27.57-91.1,43-13,9.81-3,20.71-6.27,9.94-3L325.24,379l13.14-4L370,365.45l9.5-2.87,33.32-10.09,13.76-4.16,90.16-27.28,10-3,20.71-6.27,9.81-3,38.54-11.66,27.56,91.1-39.39,11.92Zm18,11.2-.42-1.34a16.11,16.11,0,0,1-1-4.32L620,399.79l-15.07,30.88A28.92,28.92,0,0,1,592.07,414.33Zm100.44-9.45a28.85,28.85,0,0,1-17.08,14.18l-47.07,14.48a28.71,28.71,0,0,1-14,.76l19.75-40.48a3,3,0,0,0,.11-.32,3.28,3.28,0,0,0,.2-.52,3.89,3.89,0,0,0,.09-.47,2.74,2.74,0,0,0,.08-.5,4.17,4.17,0,0,0,0-.5c0-.16,0-.31,0-.47a5,5,0,0,0-.1-.56c0-.11,0-.22-.07-.33l-5.32-17.59,29.24-9a29,29,0,0,1,34.16,41.32Z"/><path class="cls-7" d="M225.55,433.7l15.83-4.64c8.11-2.38,15,.48,17.3,8.33s-1.79,14.29-10.4,16.81l-11.91,3.5L242,477l-3.48,1Zm9.89,20.83,12.23-3.59c7.15-2.1,9-6.77,7.38-12.34-1.75-6-6.66-8.16-12.61-6.41L230,435.85Z"/><path class="cls-7" d="M277,418.62l13,44.32-3.42,1-13-44.33Z"/><path class="cls-7" d="M306.81,454.91l17.51-46.74-27.23,8-.92-3.16,31.28-9.18.87,3L311,453.35l29.13-8.55.36,3.34-32.8,9.62Z"/><path class="cls-7" d="M354,441.07l17.5-46.75-27.22,8-.93-3.17L374.63,390l.87,3-17.36,46.57L387.27,431l.36,3.34-32.8,9.62Z"/><path class="cls-7" d="M436.14,395.65c3.54,12.1.32,25-13.36,29-12.48,3.66-22.71-4.27-26.45-17-3.68-12.54.34-24.86,13.52-28.72C422,375.38,432.34,382.73,436.14,395.65ZM400,406.4c3,10.2,11.45,18.17,22.09,15.05,11.46-3.36,13.52-14.15,10.44-24.66-3-10.32-11.13-17.78-21.83-14.64C399.25,385.5,397,396.4,400,406.4Z"/><path class="cls-7" d="M449,368.15l3.42-1,12.08,41.16,23.81-7,.29,3.35L462,412.48Z"/><path class="cls-7" d="M508.28,382.26l-1.14,17-3.48,1,3.27-49.11L511,350l30,39.35-3.74,1.09L527,376.78ZM524.89,374c-8.8-11.73-13.19-17.32-14.95-20l-.07,0c-.09,3.67-.63,12.36-1.32,24.8Z"/><text/></svg>